nColumns=19
nRows=122
DataType=double
version=3
OpenSimVersion=4.1
endheader
time	ground_force_calcn_r_vx	ground_force_calcn_r_vy	ground_force_calcn_r_vz	ground_force_calcn_r_px	ground_force_calcn_r_py	ground_force_calcn_r_pz	ground_force_calcn_r_mx	ground_force_calcn_r_my	ground_force_calcn_r_mz	ground_force_calcn_l_vx	ground_force_calcn_l_vy	ground_force_calcn_l_vz	ground_force_calcn_l_px	ground_force_calcn_l_py	ground_force_calcn_l_pz	ground_force_calcn_l_mx	ground_force_calcn_l_my	ground_force_calcn_l_mz
4.125	-195.492	1607.56	43.1283	1.15891	0	-0.301272	0.254621	-2.09379	-0.0561732	0	0	0	0	0	0	0	0	0
4.13333	-161.353	1739.08	68.0279	1.12649	0	-0.303695	0.520809	-5.61332	-0.219578	0	0	0	0	0	0	0	0	0
4.14167	-103.608	1835.52	77.2402	1.09248	0	-0.305618	0.452829	-8.02231	-0.337585	0	0	0	0	0	0	0	0	0
4.15	-43.1005	1889.64	75.8285	1.06013	0	-0.306815	0.207803	-9.11064	-0.365596	0	0	0	0	0	0	0	0	0
4.15833	15.9379	1900.3	71.4048	1.02898	0	-0.307047	-0.0760121	-9.06301	-0.340548	0	0	0	0	0	0	0	0	0
4.16667	74.2913	1866.22	67.6165	0.997661	0	-0.306828	-0.329529	-8.27788	-0.299922	0	0	0	0	0	0	0	0	0
4.175	127.488	1781.58	64.4454	0.966658	0	-0.306894	-0.512817	-7.16636	-0.25923	0	0	0	0	0	0	0	0	0
4.18333	170.531	1642.36	61.5037	0.937015	0	-0.30732	-0.62456	-6.01505	-0.225253	0	0	0	0	0	0	0	0	0
4.19167	203.045	1450.22	58.6444	0.907993	0	-0.30772	-0.691104	-4.93609	-0.199607	0	0	0	0	0	0	0	0	0
4.2	229.172	1213.02	54.5287	0.876084	0	-0.307891	-0.737442	-3.90333	-0.175466	0	0	0	0	0	0	0	0	0
4.20833	243.463	949.741	46.9818	0.839408	0	-0.307818	-0.732793	-2.8586	-0.141409	0	0	0	0	0	0	0	0	0
4.21667	233.254	692.928	35.6999	0.801657	0	-0.307255	-0.611711	-1.81721	-0.0936234	0	0	0	0	0	0	0	0	0
4.225	195.394	470.964	23.6404	0.769625	0	-0.306041	-0.364611	-0.878835	-0.0441137	0	0	0	0	0	0	0	0	0
4.23333	143.726	296.19	14.5352	0.747814	0	-0.303529	-0.0706822	-0.145662	-0.00714819	0	0	0	0	0	0	0	0	0
4.24167	94.4736	169.118	9.36664	0.736176	0	-0.296952	0.176799	0.31649	0.0175289	0	0	0	0	0	0	0	0	0
4.25	55.0791	85.3015	6.21542	0.733365	0	-0.28181	0.314893	0.487677	0.0355342	0	0	0	0	0	0	0	0	0
4.25833	27.2595	37.2143	3.19764	0.754046	0	-0.251913	0.308521	0.421188	0.0361906	0	0	0	0	0	0	0	0	0
4.26667	10.8238	14.6561	0.478679	0.898242	0	-0.19761	0.161943	0.219281	0.00716188	0	0	0	0	0	0	0	0	0
4.275	0	0	0	0	0	0	0	0	0	0	0	0	0	0	0	0	0	0
4.28333	0	0	0	0	0	0	0	0	0	0	0	0	0	0	0	0	0	0
4.29167	0	0	0	0	0	0	0	0	0	0	0	0	0	0	0	0	0	0
4.3	0	0	0	0	0	0	0	0	0	0	0	0	0	0	0	0	0	0
4.30833	0	0	0	0	0	0	0	0	0	0	0	0	0	0	0	0	0	0
4.31667	0	0	0	0	0	0	0	0	0	0	0	0	0	0	0	0	0	0
4.325	0	0	0	0	0	0	0	0	0	0	0	0	0	0	0	0	0	0
4.33333	0	0	0	0	0	0	0	0	0	0	0	0	0	0	0	0	0	0
4.34167	0	0	0	0	0	0	0	0	0	0	0	0	0	0	0	0	0	0
4.35	0	0	0	0	0	0	0	0	0	0	0	0	0	0	0	0	0	0
4.35833	0	0	0	0	0	0	0	0	0	0	0	0	0	0	0	0	0	0
4.36667	0	0	0	0	0	0	0	0	0	0	0	0	0	0	0	0	0	0
4.375	0	0	0	0	0	0	0	0	0	-5.542	27.473	0.564322	1.32641	0	-0.311526	-0.183454	0.909427	0.0186805
4.38333	0	0	0	0	0	0	0	0	0	-24.7234	80.5064	3.45707	1.32407	0	-0.353168	0.489328	-1.59339	-0.0684227
4.39167	0	0	0	0	0	0	0	0	0	-69.1508	203.776	13.0801	1.31659	0	-0.363492	1.48421	-4.37373	-0.280744
4.4	0	0	0	0	0	0	0	0	0	-132.787	408.845	32.2234	1.30873	0	-0.361841	2.26459	-6.97257	-0.549547
4.40833	0	0	0	0	0	0	0	0	0	-179.368	659.834	54.884	1.29269	0	-0.356589	2.37566	-8.73924	-0.726917
4.41667	0	0	0	0	0	0	0	0	0	-186.78	921.687	65.7863	1.26044	0	-0.351272	1.79889	-8.87682	-0.633591
4.425	0	0	0	0	0	0	0	0	0	-183.374	1181.91	52.6224	1.22004	0	-0.347175	1.07005	-6.89686	-0.307069
4.43333	0	0	0	0	0	0	0	0	0	-189.788	1418.77	19.1469	1.18487	0	-0.343719	0.428349	-3.20214	-0.0432143
4.44167	0	0	0	0	0	0	0	0	0	-188.893	1617.25	-17.7661	1.1541	0	-0.339941	-0.139748	1.19649	-0.0131439
4.45	0	0	0	0	0	0	0	0	0	-162.673	1777.96	-42.9051	1.12187	0	-0.336286	-0.47666	5.20974	-0.125719
4.45833	0	0	0	0	0	0	0	0	0	-113.629	1896.7	-51.979	1.08823	0	-0.333638	-0.480215	8.01578	-0.219672
4.46667	0	0	0	0	0	0	0	0	0	-58.8707	1960.64	-49.6314	1.05717	0	-0.332377	-0.278304	9.26867	-0.234626
4.475	0	0	0	0	0	0	0	0	0	-9.1086	1967.14	-43.09	1.02961	0	-0.331969	-0.0423597	9.14821	-0.200391
4.48333	0	0	0	0	0	0	0	0	0	39.4974	1925.07	-37.7652	1.0032	0	-0.331545	0.167911	8.18381	-0.160547
4.49167	0	0	0	0	0	0	0	0	0	85.697	1839.84	-35.9606	0.9769	0	-0.330746	0.325405	6.98617	-0.136548
4.5	0	0	0	0	0	0	0	0	0	122.605	1711.07	-37.5268	0.951416	0	-0.329421	0.431847	6.02683	-0.13218
4.50833	0	0	0	0	0	0	0	0	0	148.374	1539.39	-41.203	0.927021	0	-0.327412	0.531007	5.50922	-0.147459
4.51667	0	0	0	0	0	0	0	0	0	165.196	1327.28	-45.3623	0.90252	0	-0.32493	0.666511	5.35513	-0.183021
4.525	0	0	0	0	0	0	0	0	0	175.8	1080.1	-47.884	0.874942	0	-0.322483	0.860251	5.28528	-0.234313
4.53333	0	0	0	0	0	0	0	0	0	179.305	813.322	-46.4311	0.840874	0	-0.320619	1.09292	4.95744	-0.283011
4.54167	0	0	0	0	0	0	0	0	0	169.805	558.054	-39.7652	0.801231	0	-0.319398	1.25874	4.13679	-0.294775
4.55	0	0	0	0	0	0	0	0	0	140.533	347.724	-28.9298	0.766719	0	-0.318202	1.15943	2.86881	-0.238678
4.55833	0	0	0	0	0	0	0	0	0	98.4131	197.929	-17.0568	0.753705	0	-0.316428	0.71685	1.44173	-0.124244
4.56667	0	0	0	0	0	0	0	0	0	58.025	104.447	-7.75769	0.771797	0	-0.312835	0.0759566	0.136724	-0.0101551
4.575	0	0	0	0	0	0	0	0	0	28.6738	51.003	-2.94305	0.787006	0	-0.309419	-0.519031	-0.923216	0.0532728
4.58333	0	0	0	0	0	0	0	0	0	11.8024	22.0632	-1.72273	0.697168	0	-0.318435	-0.889718	-1.66323	0.129867
4.59167	0	0	0	0	0	0	0	0	0	0	0	0	0	0	0	0	0	0
4.6	0	0	0	0	0	0	0	0	0	0	0	0	0	0	0	0	0	0
4.60833	0	0	0	0	0	0	0	0	0	0	0	0	0	0	0	0	0	0
4.61667	0	0	0	0	0	0	0	0	0	0	0	0	0	0	0	0	0	0
4.625	0	0	0	0	0	0	0	0	0	0	0	0	0	0	0	0	0	0
4.63333	0	0	0	0	0	0	0	0	0	0	0	0	0	0	0	0	0	0
4.64167	0	0	0	0	0	0	0	0	0	0	0	0	0	0	0	0	0	0
4.65	0	0	0	0	0	0	0	0	0	0	0	0	0	0	0	0	0	0
4.65833	0	0	0	0	0	0	0	0	0	0	0	0	0	0	0	0	0	0
4.66667	0	0	0	0	0	0	0	0	0	0	0	0	0	0	0	0	0	0
4.675	0	0	0	0	0	0	0	0	0	0	0	0	0	0	0	0	0	0
4.68333	0	0	0	0	0	0	0	0	0	0	0	0	0	0	0	0	0	0
4.69167	-3.17806	12.9364	-3.48864	1.0317	0	-0.116883	0.764235	-3.11084	0.838921	0	0	0	0	0	0	0	0	0
4.7	-12.6953	30.8184	-8.96965	1.22832	0	-0.226118	0.627763	-1.52393	0.443536	0	0	0	0	0	0	0	0	0
4.70833	-38.9947	87.3508	-18.2377	1.31013	0	-0.276868	-0.130429	0.29217	-0.0610014	0	0	0	0	0	0	0	0	0
4.71667	-94.271	212.009	-29.1581	1.32134	0	-0.287092	-1.03579	2.32942	-0.32037	0	0	0	0	0	0	0	0	0
4.725	-162.899	400.847	-37.863	1.31567	0	-0.288938	-1.69274	4.16532	-0.393446	0	0	0	0	0	0	0	0	0
4.73333	-198.121	617.167	-40.9707	1.29301	0	-0.290443	-1.72219	5.36478	-0.356142	0	0	0	0	0	0	0	0	0
4.74167	-188.852	847.137	-36.4729	1.25154	0	-0.29353	-1.1864	5.32186	-0.229129	0	0	0	0	0	0	0	0	0
4.75	-175.438	1088.34	-22.3485	1.20675	0	-0.297812	-0.597091	3.70409	-0.0760616	0	0	0	0	0	0	0	0	0
4.75833	-175.74	1319.09	2.50055	1.16996	0	-0.301547	-0.116262	0.872654	0.00165426	0	0	0	0	0	0	0	0	0
4.76667	-171.351	1518.24	33.8518	1.13816	0	-0.304301	0.279401	-2.47562	-0.0551981	0	0	0	0	0	0	0	0	0
4.775	-141.822	1679.09	61.9416	1.10548	0	-0.306603	0.472272	-5.59143	-0.206268	0	0	0	0	0	0	0	0	0
4.78333	-87.5372	1799.31	78.4443	1.07125	0	-0.308605	0.382185	-7.85575	-0.342486	0	0	0	0	0	0	0	0	0
4.79167	-26.8108	1874.01	82.6513	1.0383	0	-0.31003	0.127979	-8.94539	-0.394528	0	0	0	0	0	0	0	0	0
4.8	30.4467	1901.4	79.8907	1.00733	0	-0.31059	-0.142669	-8.90968	-0.374356	0	0	0	0	0	0	0	0	0
4.80833	85.1374	1881.79	75.448	0.977269	0	-0.310562	-0.364855	-8.06439	-0.323331	0	0	0	0	0	0	0	0	0
4.81667	134.87	1812.77	71.3688	0.948264	0	-0.310459	-0.506845	-6.81243	-0.268206	0	0	0	0	0	0	0	0	0
4.825	176.078	1691.35	67.6467	0.920864	0	-0.31054	-0.571592	-5.49056	-0.219598	0	0	0	0	0	0	0	0	0
4.83333	206.658	1518.2	63.9038	0.894241	0	-0.310802	-0.583475	-4.28647	-0.180425	0	0	0	0	0	0	0	0	0
4.84167	229.239	1297.6	59.3337	0.865576	0	-0.310924	-0.571692	-3.23605	-0.147971	0	0	0	0	0	0	0	0	0
4.85	243.937	1039.2	52.3385	0.831509	0	-0.310679	-0.537111	-2.28816	-0.115241	0	0	0	0	0	0	0	0	0
4.85833	241.888	769.663	41.8042	0.791767	0	-0.310129	-0.439577	-1.39869	-0.0759698	0	0	0	0	0	0	0	0	0
4.86667	214.338	525.409	29.0872	0.752482	0	-0.309047	-0.241204	-0.591267	-0.0327332	0	0	0	0	0	0	0	0	0
4.875	166.058	328.448	17.6697	0.725093	0	-0.306644	0.0343831	0.0680067	0.00365858	0	0	0	0	0	0	0	0	0
4.88333	112.754	185.958	10.1456	0.723464	0	-0.300362	0.317043	0.522881	0.0285274	0	0	0	0	0	0	0	0	0
4.89167	67.0176	94.8722	6.15019	0.752785	0	-0.285585	0.532742	0.754166	0.0488896	0	0	0	0	0	0	0	0	0
4.9	34.6456	44.2444	3.54764	0.79717	0	-0.253124	0.625375	0.798638	0.064037	0	0	0	0	0	0	0	0	0
4.90833	14.977	19.8988	1.03698	0.854329	0	-0.189427	0.566423	0.752564	0.0392181	0	0	0	0	0	0	0	0	0
4.91667	0	0	0	0	0	0	0	0	0	0	0	0	0	0	0	0	0	0
4.925	0	0	0	0	0	0	0	0	0	0	0	0	0	0	0	0	0	0
4.93333	0	0	0	0	0	0	0	0	0	0	0	0	0	0	0	0	0	0
4.94167	0	0	0	0	0	0	0	0	0	0	0	0	0	0	0	0	0	0
4.95	0	0	0	0	0	0	0	0	0	0	0	0	0	0	0	0	0	0
4.95833	0	0	0	0	0	0	0	0	0	0	0	0	0	0	0	0	0	0
4.96667	0	0	0	0	0	0	0	0	0	0	0	0	0	0	0	0	0	0
4.975	0	0	0	0	0	0	0	0	0	0	0	0	0	0	0	0	0	0
4.98333	0	0	0	0	0	0	0	0	0	0	0	0	0	0	0	0	0	0
4.99167	0	0	0	0	0	0	0	0	0	0	0	0	0	0	0	0	0	0
5	0	0	0	0	0	0	0	0	0	0	0	0	0	0	0	0	0	0
5.00833	0	0	0	0	0	0	0	0	0	0	0	0	0	0	0	0	0	0
5.01667	0	0	0	0	0	0	0	0	0	-3.54158	22.1036	1.32065	1.30209	0	-0.264107	-0.0879759	0.549072	0.0328062
5.025	0	0	0	0	0	0	0	0	0	-20.2823	62.6419	4.07077	1.29092	0	-0.319409	0.580219	-1.792	-0.116453
5.03333	0	0	0	0	0	0	0	0	0	-59.8059	166.255	12.5711	1.30551	0	-0.340908	1.67172	-4.64722	-0.351393
5.04167	0	0	0	0	0	0	0	0	0	-121.202	361.694	30.2033	1.31402	0	-0.342939	2.55622	-7.62838	-0.637008
5.05	0	0	0	0	0	0	0	0	0	-170.784	625.896	52.8591	1.30731	0	-0.337542	2.72319	-9.98005	-0.842851
5.05833	0	0	0	0	0	0	0	0	0	-176.405	906.882	65.2925	1.2804	0	-0.330889	2.08055	-10.6959	-0.77007
5.06667	0	0	0	0	0	0	0	0	0	-166.819	1172.55	51.4125	1.24107	0	-0.325493	1.28135	-9.00641	-0.394903
5.075	0	0	0	0	0	0	0	0	0	-180.449	1394.34	11.494	1.20582	0	-0.321754	0.666067	-5.14675	-0.0424263
5.08333	0	0	0	0	0	0	0	0	0	-200.325	1560.6	-35.6195	1.17737	0	-0.318357	0.0203932	-0.158869	0.00362607
5.09167	0	0	0	0	0	0	0	0	0	-194.017	1693.41	-69.2492	1.14781	0	-0.314628	-0.544039	4.74847	-0.194181
5.1	0	0	0	0	0	0	0	0	0	-153.458	1809.19	-82.3311	1.11404	0	-0.311222	-0.731868	8.62838	-0.392652
5.10833	0	0	0	0	0	0	0	0	0	-93.9945	1892.89	-81.4318	1.08062	0	-0.308937	-0.544147	10.9582	-0.471419
5.11667	0	0	0	0	0	0	0	0	0	-36.5041	1924.37	-76.7914	1.05089	0	-0.307834	-0.222466	11.7276	-0.467988
5.125	0	0	0	0	0	0	0	0	0	15.8692	1902.1	-74.0397	1.02275	0	-0.30715	0.0946096	11.34	-0.441414
5.13333	0	0	0	0	0	0	0	0	0	65.4173	1833.48	-73.2133	0.994222	0	-0.306084	0.368891	10.3391	-0.412854
